<svg xmlns="http://www.w3.org/2000/svg" width="240" height="160" viewBox="0 0 240 160">
  <g fill="none" stroke="#ffffff" stroke-width="2" stroke-linecap="round" stroke-linejoin="round" opacity="0.5">
    <!-- banco de dados de origem -->
    <g transform="translate(14,44)">
      <ellipse cx="18" cy="8" rx="18" ry="7"/>
      <path d="M0,8 L0,34 A18,7 0 0 0 36,34 L36,8"/>
      <path d="M0,21 A18,7 0 0 0 36,21"/>
    </g>
    <!-- seta de transferência -->
    <g transform="translate(66,58)">
      <line x1="0" y1="0" x2="46" y2="0"/>
      <path d="M38,-7 L46,0 L38,7"/>
    </g>
    <!-- planilha/arquivo -->
    <g transform="translate(124,32)">
      <rect x="0" y="0" width="30" height="38" rx="3"/>
      <line x1="6" y1="10" x2="24" y2="10"/>
      <line x1="6" y1="18" x2="24" y2="18"/>
      <line x1="6" y1="26" x2="24" y2="26"/>
      <line x1="6" y1="34" x2="16" y2="34"/>
    </g>
    <!-- seta de transferência -->
    <g transform="translate(172,58)">
      <line x1="0" y1="0" x2="30" y2="0"/>
      <path d="M22,-7 L30,0 L22,7"/>
    </g>
    <!-- banco de dados de destino -->
    <g transform="translate(202,44)">
      <ellipse cx="18" cy="8" rx="18" ry="7"/>
      <path d="M0,8 L0,34 A18,7 0 0 0 36,34 L36,8"/>
      <path d="M0,21 A18,7 0 0 0 36,21"/>
    </g>
  </g>
</svg>
